{"glyphs":{"0":{"ha":1185,"x_min":111,"x_max":1074,"o":"m 1074 703 l 899 799 l 626 799 l 626 640 l 706 640 l 621 543 l 621 300 l 899 594 l 899 158 l 621 158 l 621 0 l 915 0 l 1074 96 l 1074 703 m 286 204 l 286 640 l 558 640 l 558 799 l 286 799 l 286 799 l 111 703 l 111 96 l 269 0 l 365 0 l 365 0 l 558 0 l 558 0 l 558 0 l 558 158 l 479 158 l 558 254 l 558 493 l 286 204 "},"1":{"ha":585,"x_min":28,"x_max":474,"o":"m 474 801 l 474 801 l 315 801 l 315 801 l 28 672 l 28 492 l 315 611 l 315 1 l 474 0 l 474 801 "},"2":{"ha":1210,"x_min":125,"x_max":1085,"o":"m 125 383 l 125 0 l 565 0 l 565 164 l 294 164 l 294 322 l 571 322 l 571 479 l 283 479 l 125 383 m 125 547 l 300 547 l 300 643 l 571 643 l 571 801 l 283 801 l 125 706 l 125 547 m 1085 0 l 1085 164 l 639 164 l 639 0 l 1085 0 m 904 322 l 1085 418 l 1085 706 l 921 801 l 633 801 l 633 643 l 904 643 l 904 479 l 633 479 l 633 322 l 904 322 "},"3":{"ha":1188,"x_min":111,"x_max":1076,"o":"m 918 -1 l 1076 94 l 1076 338 l 946 400 l 1076 467 l 1076 704 l 918 800 l 631 800 l 631 642 l 901 642 l 901 478 l 631 478 l 631 321 l 901 321 l 901 163 l 631 163 l 631 -1 l 918 -1 m 292 258 l 111 258 l 111 94 l 275 -1 l 563 -1 l 563 163 l 292 163 l 292 258 m 117 546 l 292 546 l 292 642 l 563 642 l 563 800 l 275 800 l 117 704 l 117 546 m 563 321 l 563 478 l 388 478 l 388 321 l 563 321 "},"4":{"ha":1099,"x_min":28,"x_max":1001,"o":"m 1001 1 l 1001 800 l 839 800 l 839 479 l 551 479 l 551 317 l 839 317 l 839 1 l 1001 1 m 315 479 l 506 794 l 315 794 l 28 317 l 483 317 l 483 479 l 315 479 "},"5":{"ha":1215,"x_min":125,"x_max":1090,"o":"m 125 801 l 125 319 l 574 319 l 574 483 l 301 483 l 301 643 l 574 643 l 574 801 l 125 801 m 301 257 l 125 257 l 125 97 l 283 1 l 574 1 l 574 160 l 301 160 l 301 257 m 1090 643 l 1090 801 l 642 801 l 642 643 l 1090 643 m 1090 388 l 914 483 l 642 483 l 642 319 l 914 319 l 914 160 l 642 160 l 642 1 l 932 1 l 1090 97 l 1090 388 "},"6":{"ha":1178,"x_min":111,"x_max":1067,"o":"m 1067 97 l 1067 383 l 910 479 l 622 479 l 622 321 l 899 321 l 899 164 l 622 164 l 622 1 l 910 1 l 1067 97 m 893 546 l 1067 546 l 1067 704 l 910 800 l 622 800 l 622 643 l 893 643 l 893 546 m 111 704 l 111 97 l 285 1 l 556 1 l 556 164 l 285 164 l 285 321 l 556 321 l 556 479 l 285 479 l 285 643 l 556 643 l 556 800 l 268 800 l 111 704 "},"7":{"ha":1050,"x_min":42,"x_max":1008,"o":"m 1008 800 l 547 800 l 547 642 l 703 642 l 339 1 l 564 1 l 1008 800 m 481 800 l 42 800 l 42 642 l 481 642 l 481 800 "},"8":{"ha":1186,"x_min":111,"x_max":1075,"o":"m 917 1 l 1075 97 l 1075 336 l 944 399 l 1075 467 l 1075 706 l 917 801 l 628 801 l 628 642 l 899 642 l 899 483 l 628 483 l 628 319 l 899 319 l 899 160 l 628 160 l 628 1 l 917 1 m 111 97 l 269 1 l 558 1 l 558 160 l 288 160 l 288 319 l 558 319 l 558 483 l 288 483 l 288 642 l 558 642 l 558 801 l 269 801 l 111 706 l 111 467 l 242 399 l 111 336 l 111 97 "},"9":{"ha":1175,"x_min":111,"x_max":1064,"o":"m 111 701 l 111 417 l 268 321 l 554 321 l 554 478 l 285 478 l 285 640 l 554 640 l 554 797 l 268 797 l 111 701 m 285 260 l 111 260 l 111 97 l 268 1 l 554 1 l 554 164 l 285 164 l 285 260 m 1064 97 l 1064 701 l 890 797 l 621 797 l 621 640 l 890 640 l 890 478 l 621 478 l 621 321 l 890 321 l 890 164 l 621 164 l 621 1 l 907 1 l 1064 97 "},"˛":{"ha":1410,"x_min":139,"x_max":1299,"o":"m 1035 488 l 1035 488 l 1193 488 l 1193 204 l 1097 115 l 779 115 l 669 219 l 579 219 l 579 428 l 249 428 l 249 686 l 471 686 l 471 450 l 579 450 l 579 649 l 667 649 l 818 800 l 818 1008 l 899 1008 l 944 965 l 944 685 l 1146 685 l 1146 683 l 1192 640 l 1193 640 l 1193 533 l 1299 533 l 1299 683 l 1188 799 l 1188 799 l 1051 799 l 1051 1008 l 940 1119 l 708 1119 l 708 844 l 619 758 l 579 758 l 579 796 l 139 796 l 139 406 l 471 406 l 471 117 l 249 117 l 249 381 l 139 381 l 139 3 l 579 3 l 579 111 l 624 111 l 739 -1 l 1138 -1 l 1299 156 l 1299 510 l 1035 510 l 1035 488 "},"―":{"ha":1410,"x_min":139,"x_max":1299,"o":"m 1035 488 l 1035 510 l 1299 510 l 1299 156 l 1138 -1 l 739 -1 l 624 111 l 579 111 l 579 3 l 139 3 l 139 381 l 249 381 l 249 117 l 471 117 l 471 406 l 139 406 l 139 796 l 579 796 l 579 758 l 619 758 l 708 844 l 708 1119 l 940 1119 l 1051 1008 l 1051 799 l 1188 799 l 1188 799 l 1299 683 l 1299 533 l 1193 533 l 1193 640 l 1192 640 l 1146 683 l 1146 685 l 944 685 l 944 965 l 899 1008 l 818 1008 l 818 800 l 667 649 l 579 649 l 579 450 l 471 450 l 471 686 l 249 686 l 249 428 l 579 428 l 579 219 l 669 219 l 779 115 l 1097 115 l 1193 204 l 1193 488 l 1035 488 l 1035 488 "},"‖":{"ha":1410,"x_min":139,"x_max":1299,"o":"m 1035 488 l 1035 488 l 1193 488 l 1193 204 l 1097 115 l 779 115 l 669 219 l 579 219 l 579 428 l 249 428 l 249 686 l 471 686 l 471 450 l 579 450 l 579 649 l 667 649 l 818 800 l 818 1008 l 899 1008 l 944 965 l 944 685 l 1146 685 l 1146 683 l 1192 640 l 1193 640 l 1193 533 l 1299 533 l 1299 683 l 1188 799 l 1188 799 l 1051 799 l 1051 1008 l 940 1119 l 708 1119 l 708 844 l 619 758 l 579 758 l 579 796 l 139 796 l 139 406 l 471 406 l 471 117 l 249 117 l 249 381 l 139 381 l 139 3 l 579 3 l 579 111 l 624 111 l 739 -1 l 1138 -1 l 1299 156 l 1299 510 l 1035 510 l 1035 488 "},"‗":{"ha":1410,"x_min":139,"x_max":1299,"o":"m 1035 488 l 1035 510 l 1299 510 l 1299 156 l 1138 -1 l 739 -1 l 624 111 l 579 111 l 579 3 l 139 3 l 139 381 l 249 381 l 249 117 l 471 117 l 471 406 l 139 406 l 139 796 l 579 796 l 579 758 l 619 758 l 708 844 l 708 1119 l 940 1119 l 1051 1008 l 1051 799 l 1188 799 l 1188 799 l 1299 683 l 1299 533 l 1193 533 l 1193 640 l 1192 640 l 1146 683 l 1146 685 l 944 685 l 944 965 l 899 1008 l 818 1008 l 818 800 l 667 649 l 579 649 l 579 450 l 471 450 l 471 686 l 249 686 l 249 428 l 579 428 l 579 219 l 669 219 l 779 115 l 1097 115 l 1193 204 l 1193 488 l 1035 488 l 1035 488 "},"‚":{"ha":1410,"x_min":139,"x_max":1299,"o":"m 1035 488 l 1035 488 l 1193 488 l 1193 204 l 1097 115 l 779 115 l 669 219 l 579 219 l 579 428 l 249 428 l 249 686 l 471 686 l 471 450 l 579 450 l 579 649 l 667 649 l 818 800 l 818 1008 l 899 1008 l 944 965 l 944 685 l 1146 685 l 1146 683 l 1192 640 l 1193 640 l 1193 533 l 1299 533 l 1299 683 l 1188 799 l 1188 799 l 1051 799 l 1051 1008 l 940 1119 l 708 1119 l 708 844 l 619 758 l 579 758 l 579 796 l 139 796 l 139 406 l 471 406 l 471 117 l 249 117 l 249 381 l 139 381 l 139 3 l 579 3 l 579 111 l 624 111 l 739 -1 l 1138 -1 l 1299 156 l 1299 510 l 1035 510 l 1035 488 "},"‛":{"ha":1410,"x_min":139,"x_max":1299,"o":"m 1035 488 l 1035 510 l 1299 510 l 1299 156 l 1138 -1 l 739 -1 l 624 111 l 579 111 l 579 3 l 139 3 l 139 381 l 249 381 l 249 117 l 471 117 l 471 406 l 139 406 l 139 796 l 579 796 l 579 758 l 619 758 l 708 844 l 708 1119 l 940 1119 l 1051 1008 l 1051 799 l 1188 799 l 1188 799 l 1299 683 l 1299 533 l 1193 533 l 1193 640 l 1192 640 l 1146 683 l 1146 685 l 944 685 l 944 965 l 899 1008 l 818 1008 l 818 800 l 667 649 l 579 649 l 579 450 l 471 450 l 471 686 l 249 686 l 249 428 l 579 428 l 579 219 l 669 219 l 779 115 l 1097 115 l 1193 204 l 1193 488 l 1035 488 l 1035 488 "},"‟":{"ha":1410,"x_min":139,"x_max":1299,"o":"m 1035 488 l 1035 488 l 1193 488 l 1193 204 l 1097 115 l 779 115 l 669 219 l 579 219 l 579 428 l 249 428 l 249 686 l 471 686 l 471 450 l 579 450 l 579 649 l 667 649 l 818 800 l 818 1008 l 899 1008 l 944 965 l 944 685 l 1146 685 l 1146 683 l 1192 640 l 1193 640 l 1193 533 l 1299 533 l 1299 683 l 1188 799 l 1188 799 l 1051 799 l 1051 1008 l 940 1119 l 708 1119 l 708 844 l 619 758 l 579 758 l 579 796 l 139 796 l 139 406 l 471 406 l 471 117 l 249 117 l 249 381 l 139 381 l 139 3 l 579 3 l 579 111 l 624 111 l 739 -1 l 1138 -1 l 1299 156 l 1299 510 l 1035 510 l 1035 488 "},"†":{"ha":1410,"x_min":139,"x_max":1299,"o":"m 1035 488 l 1035 510 l 1299 510 l 1299 156 l 1138 -1 l 739 -1 l 624 111 l 579 111 l 579 3 l 139 3 l 139 381 l 249 381 l 249 117 l 471 117 l 471 406 l 139 406 l 139 796 l 579 796 l 579 758 l 619 758 l 708 844 l 708 1119 l 940 1119 l 1051 1008 l 1051 799 l 1188 799 l 1188 799 l 1299 683 l 1299 533 l 1193 533 l 1193 640 l 1192 640 l 1146 683 l 1146 685 l 944 685 l 944 965 l 899 1008 l 818 1008 l 818 800 l 667 649 l 579 649 l 579 450 l 471 450 l 471 686 l 249 686 l 249 428 l 579 428 l 579 219 l 669 219 l 779 115 l 1097 115 l 1193 204 l 1193 488 l 1035 488 l 1035 488 "},"‡":{"ha":1410,"x_min":139,"x_max":1299,"o":"m 1035 488 l 1035 488 l 1193 488 l 1193 204 l 1097 115 l 779 115 l 669 219 l 579 219 l 579 428 l 249 428 l 249 686 l 471 686 l 471 450 l 579 450 l 579 649 l 667 649 l 818 800 l 818 1008 l 899 1008 l 944 965 l 944 685 l 1146 685 l 1146 683 l 1192 640 l 1193 640 l 1193 533 l 1299 533 l 1299 683 l 1188 799 l 1188 799 l 1051 799 l 1051 1008 l 940 1119 l 708 1119 l 708 844 l 619 758 l 579 758 l 579 796 l 139 796 l 139 406 l 471 406 l 471 117 l 249 117 l 249 381 l 139 381 l 139 3 l 579 3 l 579 111 l 624 111 l 739 -1 l 1138 -1 l 1299 156 l 1299 510 l 1035 510 l 1035 488 "},"‣":{"ha":1410,"x_min":139,"x_max":1299,"o":"m 1035 488 l 1035 510 l 1299 510 l 1299 156 l 1138 -1 l 739 -1 l 624 111 l 579 111 l 579 3 l 139 3 l 139 381 l 249 381 l 249 117 l 471 117 l 471 406 l 139 406 l 139 796 l 579 796 l 579 758 l 619 758 l 708 844 l 708 1119 l 940 1119 l 1051 1008 l 1051 799 l 1188 799 l 1188 799 l 1299 683 l 1299 533 l 1193 533 l 1193 640 l 1192 640 l 1146 683 l 1146 685 l 944 685 l 944 965 l 899 1008 l 818 1008 l 818 800 l 667 649 l 579 649 l 579 450 l 471 450 l 471 686 l 249 686 l 249 428 l 579 428 l 579 219 l 669 219 l 779 115 l 1097 115 l 1193 204 l 1193 488 l 1035 488 l 1035 488 "},"․":{"ha":1410,"x_min":139,"x_max":1299,"o":"m 1035 488 l 1035 488 l 1193 488 l 1193 204 l 1097 115 l 779 115 l 669 219 l 579 219 l 579 428 l 249 428 l 249 686 l 471 686 l 471 450 l 579 450 l 579 649 l 667 649 l 818 800 l 818 1008 l 899 1008 l 944 965 l 944 685 l 1146 685 l 1146 683 l 1192 640 l 1193 640 l 1193 533 l 1299 533 l 1299 683 l 1188 799 l 1188 799 l 1051 799 l 1051 1008 l 940 1119 l 708 1119 l 708 844 l 619 758 l 579 758 l 579 796 l 139 796 l 139 406 l 471 406 l 471 117 l 249 117 l 249 381 l 139 381 l 139 3 l 579 3 l 579 111 l 624 111 l 739 -1 l 1138 -1 l 1299 156 l 1299 510 l 1035 510 l 1035 488 "},"‥":{"ha":1410,"x_min":139,"x_max":1299,"o":"m 1035 488 l 1035 510 l 1299 510 l 1299 156 l 1138 -1 l 739 -1 l 624 111 l 579 111 l 579 3 l 139 3 l 139 381 l 249 381 l 249 117 l 471 117 l 471 406 l 139 406 l 139 796 l 579 796 l 579 758 l 619 758 l 708 844 l 708 1119 l 940 1119 l 1051 1008 l 1051 799 l 1188 799 l 1188 799 l 1299 683 l 1299 533 l 1193 533 l 1193 640 l 1192 640 l 1146 683 l 1146 685 l 944 685 l 944 965 l 899 1008 l 818 1008 l 818 800 l 667 649 l 579 649 l 579 450 l 471 450 l 471 686 l 249 686 l 249 428 l 579 428 l 579 219 l 669 219 l 779 115 l 1097 115 l 1193 204 l 1193 488 l 1035 488 l 1035 488 "}," ":{"ha":417,"x_min":0,"x_max":0,"o":""},"!":{"ha":331,"x_min":69,"x_max":261,"o":"m 69 192 l 69 0 l 261 0 l 261 192 l 69 192 m 69 799 l 69 275 l 261 275 l 261 799 l 69 799 "},"\"":{"ha":368,"x_min":42,"x_max":326,"o":"m 210 988 l 210 768 l 326 769 l 326 988 l 210 988 m 42 988 l 42 767 l 158 769 l 158 988 l 42 988 "},"#":{"ha":603,"x_min":69,"x_max":533,"o":"m 533 367 l 533 433 l 464 433 l 500 542 l 433 542 l 397 433 l 289 433 l 325 542 l 258 542 l 222 433 l 69 433 l 69 367 l 200 367 l 164 256 l 69 256 l 69 189 l 143 189 l 101 65 l 165 65 l 165 65 l 165 65 l 207 189 l 317 189 l 276 65 l 340 65 l 340 65 l 340 65 l 382 189 l 533 189 l 533 256 l 404 256 l 442 367 l 533 367 m 339 256 l 229 256 l 267 367 l 375 367 l 339 256 "},"$":{"ha":1150,"x_min":97,"x_max":1053,"o":"m 540 319 l 540 479 l 269 479 l 269 639 l 544 639 l 544 639 l 544 986 l 476 986 l 476 797 l 257 797 l 97 703 l 97 414 l 257 319 l 540 319 m 608 479 l 608 319 l 879 319 l 879 160 l 610 160 l 610 160 l 608 160 l 608 -271 l 674 -271 l 674 1 l 896 1 l 1053 96 l 1053 383 l 896 479 l 608 479 m 544 160 l 274 160 l 274 256 l 101 256 l 101 96 l 258 1 l 478 1 l 478 -271 l 544 -271 l 544 160 l 544 160 l 544 160 m 879 639 l 879 543 l 1053 543 l 1053 703 l 896 797 l 674 797 l 674 986 l 608 986 l 608 639 l 608 639 l 879 639 "},"%":{"ha":881,"x_min":83,"x_max":797,"o":"m 739 922 l 632 921 l 128 1 l 225 1 l 739 922 m 296 713 l 296 635 l 440 700 l 440 928 l 296 990 l 296 914 l 376 879 l 376 749 l 296 713 m 83 700 l 229 635 l 229 713 l 147 749 l 147 879 l 229 914 l 229 990 l 83 928 l 83 700 m 653 17 l 653 -61 l 797 4 l 797 232 l 653 294 l 653 219 l 733 183 l 733 53 l 653 17 m 440 4 l 586 -61 l 586 17 l 504 53 l 504 183 l 586 219 l 586 294 l 440 232 l 440 4 "},"&":{"ha":1108,"x_min":83,"x_max":1039,"o":"m 926 161 l 1039 304 l 879 351 l 800 240 l 635 361 l 849 446 l 849 719 l 640 794 l 561 794 l 561 610 l 689 610 l 689 543 l 561 493 l 561 214 l 667 143 l 561 143 l 561 1 l 800 1 l 831 33 l 879 1 l 1039 81 l 926 161 m 494 1 l 494 143 l 256 143 l 256 208 l 451 288 l 494 258 l 494 446 l 372 543 l 372 610 l 494 610 l 494 794 l 414 794 l 211 719 l 211 446 l 299 389 l 83 304 l 83 82 l 243 1 l 494 1 "},"'":{"ha":339,"x_min":111,"x_max":228,"o":"m 111 989 l 111 767 l 228 769 l 228 989 l 111 989 "},"(":{"ha":461,"x_min":125,"x_max":461,"o":"m 125 869 l 125 -65 l 322 -183 l 461 -183 l 204 -26 l 204 829 l 461 988 l 322 988 l 125 869 "},")":{"ha":461,"x_min":0,"x_max":336,"o":"m 336 -67 l 336 868 l 138 988 l 0 988 l 257 829 l 257 -28 l 0 -186 l 138 -186 l 336 -67 "},"*":{"ha":482,"x_min":42,"x_max":440,"o":"m 440 760 l 440 826 l 299 826 l 369 949 l 313 982 l 242 860 l 171 982 l 113 949 l 183 826 l 42 826 l 42 760 l 183 760 l 113 638 l 171 604 l 242 726 l 313 604 l 369 638 l 299 760 l 440 760 "},"+":{"ha":549,"x_min":42,"x_max":507,"o":"m 507 410 l 507 410 l 307 410 l 307 608 l 242 608 l 242 410 l 42 410 l 42 342 l 242 342 l 242 143 l 307 143 l 307 342 l 507 342 l 507 410 "},",":{"ha":381,"x_min":111,"x_max":269,"o":"m 111 192 l 111 -96 l 269 0 l 269 192 l 111 192 "},"-":{"ha":550,"x_min":111,"x_max":439,"o":"m 439 411 l 439 411 l 111 411 l 111 343 l 439 343 l 439 411 "},".":{"ha":414,"x_min":111,"x_max":303,"o":"m 111 192 l 111 0 l 303 0 l 303 192 l 111 192 "},"/":{"ha":578,"x_min":0,"x_max":578,"o":"m 578 900 l 493 899 l 0 1 l 76 1 l 578 900 "},":":{"ha":379,"x_min":111,"x_max":268,"o":"m 111 606 l 111 414 l 268 414 l 268 606 l 111 606 m 111 193 l 111 1 l 268 1 l 268 193 l 111 193 "},";":{"ha":381,"x_min":111,"x_max":269,"o":"m 111 192 l 111 -96 l 269 0 l 269 192 l 111 192 m 111 606 l 111 414 l 268 414 l 268 606 l 111 606 "},"<":{"ha":614,"x_min":42,"x_max":503,"o":"m 503 464 l 503 543 l 42 350 l 42 350 l 42 350 l 42 286 l 503 78 l 503 158 l 143 317 l 503 464 "},"=":{"ha":685,"x_min":111,"x_max":574,"o":"m 574 432 l 574 432 l 111 432 l 111 367 l 574 367 l 574 432 m 574 256 l 574 256 l 111 256 l 111 189 l 574 189 l 574 256 "},">":{"ha":614,"x_min":111,"x_max":572,"o":"m 572 286 l 572 350 l 111 543 l 111 464 l 471 317 l 111 158 l 111 78 l 572 286 "},"?":{"ha":1096,"x_min":69,"x_max":1026,"o":"m 401 196 l 401 0 l 593 0 l 593 196 l 401 196 m 1026 417 l 1026 703 l 869 799 l 582 799 l 582 642 l 851 642 l 851 478 l 582 478 l 419 382 l 419 269 l 593 269 l 593 319 l 869 319 l 1026 417 m 69 544 l 228 544 l 228 642 l 514 642 l 514 799 l 228 799 l 69 703 l 69 544 "},"@":{"ha":1197,"x_min":111,"x_max":1072,"o":"m 111 706 l 111 99 l 271 1 l 558 1 l 558 143 l 236 143 l 236 690 l 558 690 l 558 803 l 271 803 l 111 706 m 960 143 l 1072 143 l 1072 1 l 911 1 l 624 1 l 624 143 l 960 143 m 300 497 l 300 338 l 464 242 l 558 242 l 558 354 l 444 354 l 444 482 l 558 482 l 558 594 l 464 594 l 300 497 m 1072 706 l 1072 242 l 624 242 l 624 354 l 700 354 l 700 482 l 624 482 l 624 594 l 724 594 l 719 594 l 844 594 l 844 354 l 943 354 l 943 690 l 624 690 l 624 803 l 911 803 l 1072 706 "},"A":{"ha":1179,"x_min":111,"x_max":1068,"o":"m 111 703 l 111 703 l 111 0 l 286 0 l 286 319 l 556 319 l 556 478 l 286 478 l 286 642 l 556 642 l 556 799 l 269 799 l 111 703 m 1068 703 l 1068 703 l 1068 0 l 893 0 l 893 319 l 618 319 l 618 478 l 893 478 l 893 642 l 618 642 l 618 799 l 904 799 l 1068 703 "},"B":{"ha":1207,"x_min":139,"x_max":1096,"o":"m 139 799 l 139 0 l 583 0 l 583 163 l 314 163 l 314 319 l 583 319 l 583 478 l 314 478 l 314 642 l 583 642 l 583 799 l 139 799 m 1096 94 l 939 0 l 651 0 l 651 163 l 921 163 l 921 319 l 651 319 l 651 478 l 921 478 l 921 642 l 651 642 l 651 799 l 939 799 l 1096 703 l 1096 461 l 965 399 l 1096 338 l 1096 94 "},"C":{"ha":1185,"x_min":111,"x_max":1074,"o":"m 111 703 l 111 94 l 274 0 l 556 0 l 556 163 l 292 163 l 292 642 l 561 642 l 561 799 l 274 799 l 111 703 m 893 258 l 1074 258 l 1074 94 l 911 0 l 629 0 l 629 163 l 893 163 l 893 258 m 1074 544 l 893 544 l 893 642 l 624 642 l 624 799 l 911 799 l 1074 703 l 1074 544 "},"D":{"ha":1207,"x_min":139,"x_max":1096,"o":"m 139 799 l 139 0 l 583 0 l 583 163 l 314 163 l 314 642 l 583 642 l 583 799 l 139 799 m 1096 703 l 1096 94 l 939 0 l 651 0 l 651 163 l 921 163 l 921 642 l 651 642 l 651 799 l 939 799 l 1096 703 "},"E":{"ha":1138,"x_min":139,"x_max":1096,"o":"m 139 799 l 139 799 l 139 0 l 578 0 l 578 157 l 314 157 l 314 319 l 583 319 l 583 478 l 314 478 l 314 635 l 583 635 l 583 799 l 139 799 m 651 157 l 651 157 l 1096 157 l 1096 0 l 651 0 l 651 157 m 1096 635 l 1096 635 l 646 635 l 646 799 l 1096 799 l 1096 635 m 871 319 l 871 319 l 646 319 l 646 478 l 871 478 l 871 319 "},"F":{"ha":1110,"x_min":139,"x_max":1096,"o":"m 139 799 l 139 799 l 139 0 l 314 0 l 314 315 l 583 315 l 583 478 l 314 478 l 314 635 l 583 635 l 583 799 l 139 799 m 1096 635 l 1096 635 l 651 635 l 651 799 l 1096 799 l 1096 635 m 876 315 l 876 315 l 651 315 l 651 478 l 876 478 l 876 315 "},"G":{"ha":1185,"x_min":111,"x_max":1074,"o":"m 111 703 l 111 94 l 274 0 l 556 0 l 556 157 l 292 157 l 292 635 l 561 635 l 561 799 l 274 799 l 111 703 m 1074 540 l 893 540 l 893 635 l 624 635 l 624 799 l 911 799 l 1074 703 l 1074 540 m 1074 478 l 1074 94 l 911 0 l 629 0 l 629 157 l 893 157 l 893 319 l 624 319 l 624 478 l 1074 478 "},"H":{"ha":1235,"x_min":139,"x_max":1096,"o":"m 139 799 l 139 799 l 139 0 l 314 0 l 314 319 l 583 319 l 583 478 l 314 478 l 314 799 l 139 799 m 1096 799 l 1096 799 l 1096 0 l 921 0 l 921 319 l 651 319 l 651 478 l 921 478 l 921 799 l 1096 799 "},"I":{"ha":397,"x_min":111,"x_max":286,"o":"m 111 799 l 111 799 l 111 0 l 286 0 l 286 799 l 111 799 "},"J":{"ha":1096,"x_min":14,"x_max":971,"o":"m 971 94 l 971 799 l 796 799 l 796 157 l 526 157 l 526 0 l 814 0 l 971 94 m 194 253 l 14 253 l 14 94 l 176 0 l 458 0 l 458 157 l 194 157 l 194 253 "},"K":{"ha":1110,"x_min":139,"x_max":1096,"o":"m 139 799 l 139 0 l 314 0 l 314 319 l 392 319 l 392 478 l 314 478 l 314 799 l 139 799 m 583 399 l 1096 79 l 932 0 l 443 319 l 443 478 l 932 799 l 1096 719 l 583 399 "},"L":{"ha":1110,"x_min":139,"x_max":1096,"o":"m 139 799 l 139 799 l 139 0 l 578 0 l 578 163 l 314 163 l 314 799 l 139 799 m 651 163 l 651 163 l 1096 163 l 1096 0 l 651 0 l 651 163 "},"M":{"ha":1235,"x_min":139,"x_max":1096,"o":"m 139 799 l 139 799 l 139 0 l 314 0 l 314 574 l 583 319 l 583 529 l 297 799 l 139 799 m 1096 799 l 1096 799 l 1096 0 l 921 0 l 921 574 l 651 319 l 651 529 l 939 799 l 1096 799 "},"N":{"ha":1235,"x_min":139,"x_max":1096,"o":"m 139 799 l 139 0 l 314 0 l 314 579 l 583 319 l 583 529 l 297 799 l 139 799 m 921 225 l 646 478 l 646 275 l 932 0 l 1096 0 l 1096 799 l 921 799 l 921 225 "},"O":{"ha":1179,"x_min":111,"x_max":1068,"o":"m 111 703 l 111 703 l 111 94 l 274 0 l 556 0 l 556 163 l 286 163 l 286 642 l 561 642 l 561 799 l 274 799 l 111 703 m 1068 703 l 1068 703 l 1068 94 l 911 0 l 624 0 l 624 163 l 893 163 l 893 642 l 624 642 l 624 799 l 911 799 l 1068 703 "},"P":{"ha":1143,"x_min":139,"x_max":1101,"o":"m 139 799 l 139 799 l 139 0 l 319 0 l 319 315 l 589 315 l 589 478 l 319 478 l 319 642 l 589 642 l 589 799 l 139 799 m 1101 410 l 1101 410 l 939 315 l 651 315 l 651 478 l 921 478 l 921 642 l 651 642 l 651 799 l 939 799 l 1101 703 l 1101 410 "},"Q":{"ha":1179,"x_min":111,"x_max":1068,"o":"m 111 703 l 111 94 l 274 0 l 556 0 l 556 163 l 286 163 l 286 642 l 561 642 l 561 799 l 274 799 l 111 703 m 1068 703 l 911 799 l 624 799 l 624 642 l 893 642 l 893 225 l 736 382 l 624 275 l 742 163 l 624 163 l 624 0 l 911 0 l 911 0 l 911 0 l 911 0 l 1068 94 l 1068 703 "},"R":{"ha":1193,"x_min":139,"x_max":1096,"o":"m 139 799 l 139 799 l 139 0 l 314 0 l 314 315 l 583 315 l 583 478 l 314 478 l 314 635 l 583 635 l 583 799 l 139 799 m 1096 0 l 1096 0 l 921 0 l 921 315 l 646 315 l 646 478 l 921 478 l 921 635 l 646 635 l 646 799 l 932 799 l 1096 703 l 1096 461 l 965 399 l 1096 331 l 1096 0 "},"S":{"ha":1151,"x_min":97,"x_max":1054,"o":"m 97 703 l 97 410 l 256 315 l 542 315 l 542 478 l 267 478 l 267 635 l 542 635 l 542 799 l 256 799 l 97 703 m 1054 382 l 1054 94 l 890 0 l 610 0 l 610 157 l 879 157 l 879 315 l 604 315 l 604 478 l 890 478 l 1054 382 m 272 253 l 97 253 l 97 94 l 260 0 l 542 0 l 542 157 l 272 157 l 272 253 m 1054 540 l 879 540 l 879 635 l 604 635 l 604 799 l 890 799 l 1054 703 l 1054 540 "},"T":{"ha":1040,"x_min":42,"x_max":999,"o":"m 999 642 l 999 799 l 42 799 l 42 642 l 407 642 l 407 0 l 599 0 l 599 642 l 999 642 "},"U":{"ha":1179,"x_min":111,"x_max":1068,"o":"m 111 799 l 111 799 l 111 94 l 269 0 l 556 0 l 556 163 l 286 163 l 286 799 l 111 799 m 1068 799 l 1068 799 l 1068 94 l 911 0 l 624 0 l 624 163 l 893 163 l 893 799 l 1068 799 "},"V":{"ha":985,"x_min":14,"x_max":971,"o":"m 172 799 l 172 799 l 14 747 l 458 0 l 458 319 l 172 799 m 814 799 l 814 799 l 971 747 l 526 0 l 526 319 l 814 799 "},"W":{"ha":1013,"x_min":28,"x_max":985,"o":"m 190 0 l 349 0 l 478 146 l 478 382 l 315 192 l 190 799 l 28 747 l 190 0 m 828 0 l 828 0 l 985 747 l 828 799 l 697 192 l 540 382 l 540 146 l 669 0 l 828 0 "},"X":{"ha":1040,"x_min":42,"x_max":999,"o":"m 486 269 l 486 529 l 199 799 l 42 747 l 408 399 l 42 50 l 199 0 l 486 269 m 626 399 l 999 747 l 836 799 l 549 529 l 549 269 l 836 0 l 999 50 l 626 399 "},"Y":{"ha":1040,"x_min":42,"x_max":999,"o":"m 599 365 l 999 747 l 842 799 l 519 494 l 519 494 l 200 799 l 42 747 l 442 365 l 442 0 l 599 0 l 599 365 "},"Z":{"ha":1046,"x_min":42,"x_max":1032,"o":"m 1032 799 l 571 799 l 571 642 l 650 642 l 571 544 l 571 304 l 1032 799 m 42 0 l 503 0 l 503 163 l 425 163 l 503 258 l 503 494 l 42 0 m 503 799 l 64 799 l 64 642 l 503 642 l 503 799 m 1014 163 l 571 163 l 571 0 l 1014 0 l 1014 163 "},"[":{"ha":421,"x_min":139,"x_max":379,"o":"m 139 -168 l 139 -168 l 379 -168 l 379 -100 l 217 -100 l 217 925 l 379 925 l 379 988 l 139 988 l 139 -168 "},"\\":{"ha":669,"x_min":42,"x_max":628,"o":"m 126 900 l 42 899 l 551 1 l 628 1 l 126 900 "},"]":{"ha":422,"x_min":42,"x_max":283,"o":"m 283 -168 l 283 988 l 42 988 l 42 926 l 203 926 l 203 -103 l 42 -103 l 42 -168 l 283 -168 "},"^":{"ha":608,"x_min":42,"x_max":567,"o":"m 483 607 l 567 607 l 347 988 l 347 988 l 347 988 l 283 988 l 42 607 l 125 607 l 314 906 l 483 607 "},"_":{"ha":554,"x_min":111,"x_max":443,"o":"m 443 82 l 111 82 l 111 0 l 443 0 l 443 82 "},"`":{"ha":1069,"x_min":139,"x_max":457,"o":"m 457 814 l 139 919 l 139 815 l 457 814 "},"a":{"ha":1069,"x_min":111,"x_max":944,"o":"m 111 271 l 111 94 l 269 -1 l 497 -1 l 497 146 l 288 146 l 288 260 l 497 260 l 497 367 l 269 367 l 111 271 m 111 418 l 288 418 l 288 481 l 497 481 l 497 611 l 269 611 l 111 514 l 111 418 m 944 514 l 944 -1 l 564 -1 l 564 146 l 768 146 l 768 260 l 558 260 l 558 367 l 768 367 l 768 481 l 558 481 l 558 611 l 786 611 l 944 514 "},"b":{"ha":1078,"x_min":139,"x_max":967,"o":"m 139 800 l 139 0 l 517 0 l 517 146 l 314 146 l 314 479 l 522 479 l 522 608 l 314 608 l 314 800 l 139 800 m 967 513 l 967 96 l 808 0 l 589 0 l 589 146 l 797 146 l 797 479 l 583 479 l 583 608 l 808 608 l 967 513 "},"c":{"ha":1056,"x_min":111,"x_max":944,"o":"m 111 517 l 111 96 l 269 0 l 492 0 l 492 147 l 288 147 l 288 482 l 497 482 l 497 613 l 269 613 l 111 517 m 944 419 l 769 419 l 769 482 l 560 482 l 560 613 l 786 613 l 944 517 l 944 419 m 944 193 l 769 193 l 769 147 l 560 147 l 560 0 l 786 0 l 944 96 l 944 193 "},"d":{"ha":1078,"x_min":111,"x_max":939,"o":"m 939 0 l 939 800 l 764 800 l 764 608 l 556 608 l 556 479 l 764 479 l 764 146 l 561 146 l 561 0 l 939 0 m 111 513 l 111 96 l 269 0 l 489 0 l 489 146 l 281 146 l 281 479 l 494 479 l 494 608 l 269 608 l 111 513 "},"e":{"ha":1061,"x_min":111,"x_max":950,"o":"m 950 357 l 950 515 l 786 613 l 564 613 l 564 482 l 774 482 l 774 368 l 564 368 l 564 261 l 786 261 l 950 357 m 950 193 l 768 193 l 768 147 l 564 147 l 564 0 l 786 0 l 950 96 l 950 193 m 111 96 l 111 515 l 275 613 l 496 613 l 496 482 l 286 482 l 286 368 l 496 368 l 496 261 l 286 261 l 286 147 l 496 147 l 496 0 l 275 0 l 111 96 "},"f":{"ha":724,"x_min":42,"x_max":793,"o":"m 410 478 l 410 367 l 619 367 l 619 478 l 410 478 m 349 0 l 349 800 l 175 704 l 175 478 l 42 478 l 42 367 l 175 367 l 175 0 l 349 0 m 619 607 l 793 607 l 793 704 l 636 800 l 410 800 l 410 671 l 619 671 l 619 607 "},"g":{"ha":1071,"x_min":111,"x_max":946,"o":"m 111 -62 l 290 -62 l 290 -125 l 493 -125 l 493 -271 l 274 -271 l 111 -175 l 111 -62 m 111 515 l 111 175 l 274 78 l 493 78 l 493 190 l 288 190 l 288 478 l 493 478 l 493 611 l 274 611 l 111 515 m 946 611 l 946 -175 l 783 -271 l 563 -271 l 563 -125 l 769 -125 l 769 78 l 563 78 l 563 190 l 769 190 l 769 478 l 563 478 l 563 611 l 946 611 "},"h":{"ha":1090,"x_min":139,"x_max":965,"o":"m 139 799 l 139 -1 l 310 -1 l 310 478 l 521 478 l 521 611 l 310 611 l 310 799 l 139 799 m 965 515 l 965 -1 l 790 -1 l 790 478 l 582 478 l 582 611 l 808 611 l 965 515 "},"i":{"ha":397,"x_min":111,"x_max":286,"o":"m 286 611 l 111 611 l 111 -1 l 286 -1 l 286 611 m 283 668 l 283 797 l 111 797 l 111 668 l 283 668 "},"j":{"ha":465,"x_min":-292,"x_max":326,"o":"m -292 -54 l -117 -54 l -117 -125 l 90 -125 l 90 -271 l -131 -271 l -292 -175 l -292 -54 m 325 611 l 325 -175 l 154 -271 l 154 -125 l 154 611 l 325 611 m 326 667 l 326 797 l 154 797 l 154 668 l 326 667 "},"k":{"ha":1010,"x_min":139,"x_max":968,"o":"m 139 799 l 139 -1 l 314 -1 l 314 263 l 392 263 l 392 364 l 314 364 l 314 799 l 139 799 m 619 319 l 968 94 l 811 -1 l 461 263 l 461 364 l 822 611 l 938 529 l 619 319 "},"l":{"ha":456,"x_min":139,"x_max":317,"o":"m 139 799 l 139 -1 l 317 -1 l 317 799 l 139 799 "},"m":{"ha":1285,"x_min":139,"x_max":1160,"o":"m 139 611 l 139 1 l 313 1 l 313 481 l 526 481 l 526 611 l 313 551 l 313 611 l 139 611 m 1001 611 l 1160 515 l 1160 1 l 986 1 l 986 481 l 764 481 l 764 1 l 582 1 l 582 481 l 582 611 l 764 535 l 942 611 l 1001 611 "},"n":{"ha":1096,"x_min":139,"x_max":971,"o":"m 139 611 l 139 1 l 315 1 l 315 481 l 521 481 l 521 611 l 315 551 l 315 611 l 139 611 m 971 515 l 971 1 l 797 1 l 797 481 l 588 481 l 588 611 l 807 611 l 971 515 "},"o":{"ha":1038,"x_min":111,"x_max":926,"o":"m 111 515 l 111 97 l 274 1 l 493 1 l 493 150 l 285 150 l 285 481 l 493 481 l 493 611 l 274 611 l 111 515 m 926 515 l 926 97 l 764 1 l 543 1 l 543 150 l 753 150 l 753 481 l 543 481 l 543 611 l 764 611 l 926 515 "},"p":{"ha":1079,"x_min":139,"x_max":968,"o":"m 968 178 l 968 515 l 813 611 l 585 611 l 585 481 l 794 481 l 794 194 l 593 194 l 593 83 l 813 83 l 968 178 m 139 611 l 139 -268 l 315 -268 l 315 83 l 517 83 l 517 194 l 315 194 l 315 481 l 524 481 l 524 611 l 139 611 "},"q":{"ha":1085,"x_min":111,"x_max":946,"o":"m 111 515 l 111 178 l 275 83 l 496 83 l 496 194 l 288 194 l 288 481 l 496 481 l 496 611 l 275 611 l 111 515 m 946 611 l 946 -268 l 772 -268 l 772 83 l 564 83 l 564 194 l 772 194 l 772 481 l 564 481 l 564 611 l 946 611 "},"r":{"ha":778,"x_min":139,"x_max":764,"o":"m 139 607 l 139 0 l 313 0 l 313 478 l 521 478 l 521 607 l 313 547 l 313 607 l 139 607 m 764 531 l 764 418 l 583 418 l 583 607 l 764 531 "},"s":{"ha":1050,"x_min":111,"x_max":939,"o":"m 939 96 l 939 269 l 781 367 l 561 367 l 561 258 l 771 258 l 771 146 l 557 146 l 557 0 l 781 0 l 939 96 m 111 511 l 111 354 l 269 258 l 494 258 l 494 367 l 286 367 l 286 478 l 494 478 l 494 607 l 269 607 l 111 511 m 286 193 l 111 193 l 111 96 l 269 0 l 494 0 l 494 146 l 286 146 l 286 193 m 765 418 l 939 418 l 939 511 l 781 607 l 557 607 l 557 478 l 765 478 l 765 418 "},"t":{"ha":800,"x_min":14,"x_max":758,"o":"m 375 607 l 375 478 l 583 478 l 583 607 l 375 607 m 758 208 l 583 208 l 583 146 l 375 146 l 375 0 l 600 0 l 758 96 l 758 208 m 313 703 l 14 538 l 14 476 l 139 478 l 139 96 l 313 0 l 313 146 l 313 703 "},"u":{"ha":1092,"x_min":125,"x_max":953,"o":"m 953 0 l 953 607 l 779 607 l 779 146 l 571 146 l 571 0 l 779 63 l 779 0 l 953 0 m 125 96 l 125 607 l 300 607 l 300 146 l 507 146 l 507 0 l 282 0 l 125 96 "},"v":{"ha":889,"x_min":14,"x_max":875,"o":"m 189 607 l 14 557 l 364 0 l 418 0 l 418 258 l 189 607 m 707 607 l 875 557 l 538 0 l 488 0 l 488 258 l 707 607 "},"w":{"ha":1019,"x_min":42,"x_max":978,"o":"m 42 564 l 201 0 l 331 0 l 478 147 l 478 368 l 314 208 l 201 613 l 42 564 m 832 0 l 978 564 l 799 613 l 700 208 l 540 368 l 540 147 l 689 0 l 832 0 "},"x":{"ha":918,"x_min":42,"x_max":876,"o":"m 494 436 l 494 192 l 682 0 l 876 51 l 575 324 l 876 564 l 682 613 l 494 436 m 428 436 l 428 192 l 232 0 l 42 51 l 343 324 l 42 564 l 232 613 l 428 436 "},"y":{"ha":1081,"x_min":125,"x_max":956,"o":"m 125 608 l 125 176 l 285 81 l 508 81 l 508 192 l 300 192 l 300 608 l 125 608 m 300 -62 l 125 -62 l 125 -175 l 285 -271 l 508 -271 l 508 -126 l 300 -126 l 300 -62 m 956 608 l 781 608 l 781 192 l 572 192 l 572 81 l 781 81 l 781 -126 l 572 -126 l 572 -271 l 781 -271 l 956 -175 l 956 608 "},"z":{"ha":918,"x_min":42,"x_max":876,"o":"m 876 613 l 490 613 l 490 485 l 525 485 l 490 453 l 490 243 l 876 613 m 429 0 l 429 142 l 393 142 l 429 176 l 429 386 l 42 0 l 429 0 m 429 613 l 42 613 l 42 485 l 429 485 l 429 613 m 876 147 l 490 147 l 490 0 l 876 0 l 876 147 "},"{":{"ha":532,"x_min":42,"x_max":504,"o":"m 171 326 l 171 -65 l 367 -185 l 504 -185 l 249 -26 l 249 343 l 132 447 l 249 553 l 249 826 l 504 985 l 367 985 l 171 865 l 171 567 l 42 447 l 171 326 "},"|":{"ha":358,"x_min":139,"x_max":219,"o":"m 219 -168 l 219 989 l 139 989 l 139 -168 l 219 -168 "},"}":{"ha":531,"x_min":28,"x_max":489,"o":"m 363 -65 l 363 326 l 489 447 l 363 567 l 363 865 l 164 985 l 28 985 l 282 826 l 282 553 l 400 447 l 282 343 l 282 -26 l 28 -185 l 164 -185 l 363 -65 "},"~":{"ha":744,"x_min":111,"x_max":633,"o":"m 633 379 l 633 456 l 507 382 l 443 382 l 317 460 l 222 460 l 111 393 l 111 315 l 238 394 l 301 394 l 428 315 l 522 315 l 633 379 "}," ":{"ha":331,"x_min":0,"x_max":0,"o":""},"¡":{"ha":469,"x_min":139,"x_max":331,"o":"m 139 607 l 139 799 l 331 799 l 331 607 l 139 607 m 139 0 l 139 524 l 331 524 l 331 0 l 139 0 "},"¢":{"ha":1051,"x_min":111,"x_max":940,"o":"m 558 479 l 767 479 l 767 417 l 940 417 l 940 513 l 782 608 l 624 608 l 624 783 l 558 783 l 558 479 m 767 193 l 767 146 l 558 146 l 558 -125 l 624 -125 l 624 0 l 782 0 l 940 99 l 940 193 l 767 193 m 428 783 l 428 608 l 271 608 l 111 513 l 111 99 l 271 0 l 424 0 l 424 -125 l 490 -125 l 490 146 l 285 146 l 285 479 l 494 479 l 494 783 l 428 783 "},"£":{"ha":947,"x_min":69,"x_max":906,"o":"m 906 607 l 906 701 l 746 797 l 617 797 l 617 669 l 731 669 l 731 607 l 906 607 m 617 143 l 617 -1 l 903 -1 l 903 143 l 617 143 m 556 669 l 556 797 l 374 797 l 213 701 l 213 606 l 213 478 l 69 478 l 69 365 l 213 365 l 213 143 l 132 143 l 132 -1 l 550 -1 l 550 143 l 389 143 l 389 365 l 556 365 l 556 478 l 389 478 l 389 669 l 556 669 "},"¤":{"ha":1072,"x_min":42,"x_max":1031,"o":"m 868 189 l 868 421 l 1031 492 l 979 608 l 775 521 l 568 610 l 567 608 l 567 471 l 696 415 l 696 219 l 567 160 l 567 4 l 763 94 l 979 1 l 1031 118 l 868 189 m 204 421 l 204 189 l 42 118 l 93 1 l 310 94 l 504 4 l 504 160 l 376 219 l 376 415 l 504 471 l 504 608 l 504 610 l 297 521 l 93 608 l 42 492 l 204 421 "},"¥":{"ha":1049,"x_min":42,"x_max":1007,"o":"m 1007 754 l 1007 754 l 846 803 l 524 497 l 524 497 l 203 803 l 42 754 l 443 368 l 443 368 l 207 368 l 207 319 l 443 319 l 443 256 l 207 256 l 207 208 l 443 208 l 443 -1 l 604 -1 l 604 208 l 846 208 l 846 256 l 604 256 l 604 319 l 846 319 l 846 368 l 604 368 l 1007 754 "},"¦":{"ha":358,"x_min":139,"x_max":219,"o":"m 219 478 l 219 989 l 139 989 l 139 478 l 219 478 m 219 -168 l 219 319 l 139 319 l 139 -168 l 219 -168 "},"§":{"ha":925,"x_min":111,"x_max":814,"o":"m 289 -62 l 117 -62 l 117 -174 l 276 -269 l 435 -269 l 435 -126 l 289 -126 l 289 -62 m 642 654 l 814 654 l 814 765 l 656 861 l 496 861 l 496 718 l 642 718 l 642 654 m 814 -174 l 656 -269 l 499 -269 l 499 -126 l 639 -126 l 639 1 l 496 1 l 496 144 l 639 144 l 639 479 l 496 479 l 496 607 l 656 607 l 814 511 l 814 129 l 686 65 l 814 1 l 814 -174 m 111 81 l 269 1 l 429 1 l 429 144 l 286 144 l 286 479 l 432 479 l 432 607 l 286 607 l 286 722 l 432 722 l 432 861 l 269 861 l 111 765 l 111 590 l 238 526 l 111 464 l 111 81 "},"¨":{"ha":717,"x_min":111,"x_max":606,"o":"m 274 713 l 274 797 l 111 797 l 111 714 l 274 713 m 449 713 l 449 797 l 606 797 l 606 714 l 449 713 m 274 713 l 274 797 l 111 797 l 111 714 l 274 713 m 449 713 l 449 797 l 606 797 l 606 714 l 449 713 "},"©":{"ha":974,"x_min":111,"x_max":863,"o":"m 521 196 l 521 119 l 863 274 l 863 719 l 521 867 l 521 793 l 804 669 l 800 321 l 521 196 m 111 276 l 457 119 l 457 196 l 172 318 l 172 669 l 457 793 l 457 867 l 111 713 l 111 276 m 324 601 l 324 394 l 379 363 l 475 363 l 475 418 l 385 418 l 385 581 l 476 581 l 476 635 l 379 635 l 324 601 m 651 450 l 590 450 l 590 418 l 500 418 l 500 363 l 596 363 l 651 394 l 651 450 m 590 549 l 651 549 l 651 601 l 596 635 l 499 635 l 499 581 l 590 581 l 590 549 "},"ª":{"ha":492,"x_min":111,"x_max":381,"o":"m 111 708 l 172 708 l 172 739 l 224 739 l 224 801 l 169 801 l 111 771 l 111 708 m 111 644 l 111 503 l 169 469 l 224 469 l 224 533 l 172 533 l 172 613 l 224 613 l 224 676 l 160 676 l 111 644 m 381 771 l 381 469 l 254 469 l 254 533 l 317 533 l 317 613 l 254 613 l 254 676 l 317 676 l 317 739 l 254 739 l 254 801 l 317 801 l 381 771 "},"«":{"ha":565,"x_min":56,"x_max":510,"o":"m 56 353 l 56 289 l 306 83 l 306 164 l 117 321 l 306 464 l 306 543 l 56 353 m 260 353 l 260 289 l 510 83 l 510 164 l 319 321 l 510 464 l 510 543 l 260 353 "},"¬":{"ha":575,"x_min":42,"x_max":506,"o":"m 42 450 l 42 450 l 42 369 l 428 369 l 428 190 l 506 190 l 506 439 l 506 450 l 42 450 "},"­":{"ha":689,"x_min":111,"x_max":578,"o":"m 578 425 l 111 425 l 111 343 l 578 343 l 578 425 "},"®":{"ha":974,"x_min":111,"x_max":863,"o":"m 172 319 l 172 669 l 454 793 l 454 865 l 111 711 l 111 279 l 454 122 l 454 199 l 172 319 m 804 669 l 804 319 l 519 199 l 519 122 l 863 279 l 863 711 l 519 865 l 519 793 l 804 669 m 326 633 l 326 633 l 326 364 l 385 364 l 385 471 l 475 471 l 475 525 l 385 525 l 385 578 l 475 578 l 475 633 l 326 633 m 649 364 l 649 475 l 604 499 l 649 519 l 649 601 l 593 633 l 496 633 l 496 578 l 589 578 l 589 525 l 496 525 l 496 471 l 589 471 l 589 364 l 649 364 "},"¯":{"ha":650,"x_min":111,"x_max":539,"o":"m 539 799 l 111 799 l 111 728 l 539 728 l 539 799 "},"°":{"ha":571,"x_min":111,"x_max":460,"o":"m 318 619 l 460 683 l 460 906 l 318 967 l 318 893 l 397 858 l 397 731 l 318 696 l 318 619 m 254 619 l 254 696 l 174 731 l 174 858 l 254 893 l 254 967 l 111 906 l 111 683 l 254 619 "},"±":{"ha":683,"x_min":111,"x_max":572,"o":"m 111 81 l 569 81 l 569 161 l 111 161 l 111 81 m 382 411 l 382 542 l 301 542 l 301 411 l 111 411 l 111 331 l 301 331 l 301 189 l 382 189 l 382 331 l 572 331 l 572 411 l 382 411 "},"²":{"ha":490,"x_min":111,"x_max":379,"o":"m 111 644 l 111 471 l 222 471 l 222 533 l 174 533 l 174 613 l 222 613 l 222 676 l 174 676 l 111 644 m 111 708 l 174 708 l 174 739 l 222 739 l 222 801 l 190 801 l 111 761 l 111 708 m 379 471 l 379 533 l 253 533 l 253 471 l 379 471 m 319 613 l 379 644 l 379 761 l 317 801 l 253 801 l 253 739 l 317 739 l 317 676 l 253 676 l 253 613 l 319 613 "},"³":{"ha":492,"x_min":111,"x_max":381,"o":"m 317 469 l 381 503 l 381 613 l 326 644 l 381 675 l 381 761 l 317 801 l 250 801 l 250 739 l 317 739 l 317 675 l 250 675 l 250 613 l 317 613 l 317 533 l 251 533 l 251 469 l 317 469 m 165 571 l 111 571 l 111 503 l 175 469 l 222 469 l 222 533 l 165 533 l 165 571 m 111 707 l 175 707 l 175 739 l 224 739 l 224 801 l 175 801 l 111 761 l 111 707 m 224 613 l 224 675 l 207 675 l 207 613 l 224 613 "},"´":{"ha":1069,"x_min":613,"x_max":931,"o":"m 931 900 l 613 794 l 931 796 l 931 900 "},"µ":{"ha":1104,"x_min":139,"x_max":965,"o":"m 965 608 l 790 608 l 790 146 l 585 146 l 585 3 l 790 67 l 790 3 l 965 3 l 965 608 m 315 146 l 315 608 l 314 608 l 139 608 l 139 -269 l 315 -269 l 315 3 l 521 3 l 521 146 l 315 146 "},"¶":{"ha":901,"x_min":42,"x_max":832,"o":"m 500 861 l 201 861 l 42 767 l 42 461 l 201 367 l 419 367 l 419 -268 l 500 -268 l 500 861 m 706 685 l 706 703 l 832 703 l 832 861 l 626 861 l 626 -268 l 706 -268 l 706 685 "},"·":{"ha":378,"x_min":111,"x_max":267,"o":"m 267 476 l 267 476 l 111 476 l 111 317 l 267 317 l 267 476 "},"¸":{"ha":571,"x_min":111,"x_max":460,"o":"m 317 -194 l 317 -269 l 460 -206 l 460 -62 l 317 -1 l 317 -75 l 397 -110 l 397 -158 l 317 -194 m 111 -206 l 254 -269 l 254 -194 l 174 -158 l 111 -206 "},"¹":{"ha":326,"x_min":42,"x_max":215,"o":"m 215 469 l 215 801 l 149 801 l 149 801 l 42 739 l 42 676 l 151 739 l 151 469 l 215 469 "},"º":{"ha":492,"x_min":111,"x_max":381,"o":"m 111 754 l 111 519 l 175 469 l 229 469 l 229 532 l 175 532 l 175 740 l 229 740 l 229 801 l 175 801 l 111 754 m 381 749 l 381 519 l 318 469 l 260 469 l 260 532 l 318 532 l 318 739 l 260 739 l 260 801 l 318 801 l 381 749 "},"»":{"ha":565,"x_min":56,"x_max":510,"o":"m 510 289 l 510 353 l 260 543 l 260 464 l 449 321 l 260 164 l 260 83 l 510 289 m 306 289 l 306 353 l 56 543 l 56 464 l 246 321 l 56 164 l 56 83 l 306 289 "},"¼":{"ha":865,"x_min":56,"x_max":754,"o":"m 689 933 l 592 933 l 85 0 l 169 0 l 689 933 m 250 643 l 250 992 l 181 992 l 56 933 l 56 858 l 181 907 l 181 643 l 250 643 m 754 -57 l 754 293 l 685 293 l 685 150 l 622 150 l 622 82 l 685 82 l 685 -57 l 754 -57 m 528 150 l 528 289 l 460 289 l 460 82 l 596 82 l 596 150 l 528 150 "},"½":{"ha":861,"x_min":56,"x_max":750,"o":"m 688 933 l 593 933 l 85 1 l 168 1 l 688 933 m 460 110 l 460 -56 l 589 -56 l 589 14 l 536 14 l 536 82 l 590 82 l 590 151 l 531 151 l 460 110 m 460 179 l 536 179 l 536 221 l 590 221 l 590 289 l 531 289 l 460 249 l 460 179 m 750 -56 l 750 14 l 621 14 l 621 -56 l 750 -56 m 672 82 l 750 125 l 750 249 l 681 289 l 619 289 l 619 221 l 672 221 l 672 151 l 619 151 l 619 82 l 672 82 m 250 643 l 250 992 l 181 992 l 181 992 l 56 933 l 56 857 l 181 906 l 181 643 l 250 643 "},"¾":{"ha":868,"x_min":56,"x_max":757,"o":"m 690 936 l 597 936 l 86 0 l 168 0 l 690 936 m 757 -57 l 757 293 l 689 293 l 689 151 l 626 151 l 626 81 l 689 81 l 689 -57 l 757 -57 m 531 151 l 531 292 l 463 292 l 463 81 l 596 81 l 596 151 l 531 151 m 283 647 l 351 689 l 351 793 l 297 822 l 351 849 l 351 953 l 283 994 l 219 994 l 219 925 l 276 925 l 276 856 l 219 856 l 219 786 l 276 786 l 276 717 l 221 717 l 221 647 l 283 647 m 132 760 l 56 760 l 56 689 l 125 647 l 190 647 l 190 717 l 132 717 l 132 760 m 57 885 l 132 885 l 132 925 l 192 925 l 192 994 l 125 994 l 57 953 l 57 885 m 192 786 l 192 856 l 175 856 l 175 786 l 192 786 "},"¿":{"ha":1096,"x_min":83,"x_max":1040,"o":"m 708 411 l 708 607 l 517 607 l 517 411 l 708 411 m 83 -96 l 83 190 l 240 288 l 517 288 l 517 338 l 690 338 l 690 225 l 528 129 l 258 129 l 258 -35 l 528 -35 l 528 -192 l 240 -192 l 83 -96 m 1040 63 l 882 63 l 882 -35 l 596 -35 l 596 -192 l 882 -192 l 1040 -96 l 1040 63 "},"À":{"ha":1207,"x_min":125,"x_max":1082,"o":"m 125 703 l 125 703 l 125 0 l 300 0 l 300 319 l 569 319 l 569 478 l 300 478 l 300 642 l 569 642 l 569 799 l 283 799 l 125 703 m 1082 703 l 1082 703 l 1082 0 l 907 0 l 907 319 l 632 319 l 632 478 l 907 478 l 907 642 l 632 642 l 632 799 l 918 799 l 1082 703 m 608 883 l 290 989 l 290 885 l 608 883 "},"Á":{"ha":1207,"x_min":125,"x_max":1082,"o":"m 125 703 l 125 703 l 125 0 l 300 0 l 300 319 l 569 319 l 569 478 l 300 478 l 300 642 l 569 642 l 569 799 l 283 799 l 125 703 m 1082 703 l 1082 703 l 1082 0 l 907 0 l 907 319 l 632 319 l 632 478 l 907 478 l 907 642 l 632 642 l 632 799 l 918 799 l 1082 703 m 917 969 l 599 864 l 917 865 l 917 969 "},"Â":{"ha":1207,"x_min":125,"x_max":1082,"o":"m 125 703 l 125 703 l 125 0 l 300 0 l 300 319 l 569 319 l 569 478 l 300 478 l 300 642 l 569 642 l 569 799 l 283 799 l 125 703 m 1082 703 l 1082 703 l 1082 0 l 907 0 l 907 319 l 632 319 l 632 478 l 907 478 l 907 642 l 632 642 l 632 799 l 918 799 l 1082 703 m 817 853 l 817 853 l 639 988 l 639 988 l 639 988 l 575 988 l 389 853 l 496 853 l 606 931 l 710 853 l 817 853 "},"Ã":{"ha":1207,"x_min":125,"x_max":1082,"o":"m 125 703 l 125 703 l 125 0 l 300 0 l 300 319 l 569 319 l 569 478 l 300 478 l 300 642 l 569 642 l 569 799 l 283 799 l 125 703 m 1082 703 l 1082 703 l 1082 0 l 907 0 l 907 319 l 632 319 l 632 478 l 907 478 l 907 642 l 632 642 l 632 799 l 918 799 l 1082 703 m 863 999 l 863 999 l 736 925 l 672 925 l 546 1003 l 451 1003 l 340 936 l 340 858 l 467 938 l 531 938 l 657 858 l 751 858 l 863 922 l 863 999 "},"Ä":{"ha":1207,"x_min":125,"x_max":1082,"o":"m 125 703 l 125 703 l 125 0 l 300 0 l 300 319 l 569 319 l 569 478 l 300 478 l 300 642 l 569 642 l 569 799 l 283 799 l 125 703 m 1082 703 l 1082 703 l 1082 0 l 907 0 l 907 319 l 632 319 l 632 478 l 907 478 l 907 642 l 632 642 l 632 799 l 918 799 l 1082 703 m 518 901 l 518 986 l 356 986 l 356 903 l 518 901 m 693 901 l 693 986 l 850 986 l 850 903 l 693 901 m 518 901 l 518 986 l 356 986 l 356 903 l 518 901 m 693 901 l 693 986 l 850 986 l 850 903 l 693 901 "},"Å":{"ha":1207,"x_min":125,"x_max":1082,"o":"m 907 0 l 1082 0 l 1082 703 l 925 799 l 794 799 l 794 928 l 638 990 l 638 917 l 733 878 l 733 754 l 638 714 l 638 642 l 638 642 l 907 642 l 907 478 l 638 478 l 638 319 l 907 319 l 907 0 m 575 714 l 475 754 l 475 878 l 575 917 l 575 990 l 413 928 l 413 799 l 288 799 l 125 703 l 125 0 l 300 0 l 300 319 l 575 319 l 575 478 l 300 478 l 300 642 l 575 642 l 575 642 l 575 714 "},"Æ":{"ha":1178,"x_min":125,"x_max":1081,"o":"m 635 797 l 635 797 l 635 1 l 1078 1 l 1078 160 l 810 160 l 810 319 l 908 319 l 908 479 l 810 479 l 810 639 l 1081 639 l 1081 797 l 635 797 m 125 701 l 125 701 l 125 1 l 300 1 l 300 319 l 572 319 l 572 479 l 300 479 l 300 607 l 572 607 l 572 797 l 285 797 l 125 701 "},"Ç":{"ha":1213,"x_min":125,"x_max":1088,"o":"m 125 703 l 125 94 l 288 0 l 569 0 l 569 163 l 306 163 l 306 642 l 575 642 l 575 799 l 288 799 l 125 703 m 907 258 l 1088 258 l 1088 94 l 925 0 l 643 0 l 643 163 l 907 163 l 907 258 m 1088 544 l 907 544 l 907 642 l 638 642 l 638 799 l 925 799 l 1088 703 l 1088 544 m 643 -194 l 643 -269 l 786 -206 l 786 -62 l 643 -1 l 643 -75 l 724 -110 l 724 -158 l 643 -194 m 438 -206 l 581 -269 l 581 -194 l 500 -158 l 438 -206 "},"È":{"ha":1139,"x_min":139,"x_max":1097,"o":"m 140 799 l 140 799 l 140 0 l 579 0 l 579 157 l 315 157 l 315 319 l 585 319 l 585 478 l 315 478 l 315 635 l 585 635 l 585 799 l 140 799 m 653 157 l 653 157 l 1097 157 l 1097 0 l 653 0 l 653 157 m 1097 635 l 1097 635 l 647 635 l 647 799 l 1097 799 l 1097 635 m 872 319 l 872 319 l 647 319 l 647 478 l 872 478 l 872 319 m 457 886 l 139 992 l 139 888 l 457 886 "},"É":{"ha":1144,"x_min":139,"x_max":1103,"o":"m 139 799 l 139 799 l 139 0 l 578 0 l 578 157 l 314 157 l 314 319 l 583 319 l 583 478 l 314 478 l 314 635 l 583 635 l 583 799 l 139 799 m 651 157 l 651 157 l 1096 157 l 1096 0 l 651 0 l 651 157 m 1096 635 l 1096 635 l 646 635 l 646 799 l 1096 799 l 1096 635 m 871 319 l 871 319 l 646 319 l 646 478 l 871 478 l 871 319 m 1103 969 l 785 864 l 1103 865 l 1103 969 "},"Ê":{"ha":1138,"x_min":139,"x_max":1096,"o":"m 139 799 l 139 799 l 139 0 l 578 0 l 578 157 l 314 157 l 314 319 l 583 319 l 583 478 l 314 478 l 314 635 l 583 635 l 583 799 l 139 799 m 651 157 l 651 157 l 1096 157 l 1096 0 l 651 0 l 651 157 m 1096 635 l 1096 635 l 646 635 l 646 799 l 1096 799 l 1096 635 m 871 319 l 871 319 l 646 319 l 646 478 l 871 478 l 871 319 m 829 853 l 829 853 l 651 988 l 651 988 l 651 988 l 588 988 l 401 853 l 508 853 l 618 931 l 722 853 l 829 853 "},"Ë":{"ha":1138,"x_min":139,"x_max":1096,"o":"m 139 799 l 139 799 l 139 0 l 578 0 l 578 157 l 314 157 l 314 319 l 583 319 l 583 478 l 314 478 l 314 635 l 583 635 l 583 799 l 139 799 m 651 157 l 651 157 l 1096 157 l 1096 0 l 651 0 l 651 157 m 1096 635 l 1096 635 l 646 635 l 646 799 l 1096 799 l 1096 635 m 871 319 l 871 319 l 646 319 l 646 478 l 871 478 l 871 319 m 532 903 l 532 988 l 369 988 l 369 904 l 532 903 m 707 903 l 707 988 l 864 988 l 864 904 l 707 903 m 532 903 l 532 988 l 369 988 l 369 904 l 532 903 m 707 903 l 707 988 l 864 988 l 864 904 l 707 903 "},"Ì":{"ha":443,"x_min":64,"x_max":382,"o":"m 132 799 l 132 799 l 132 0 l 307 0 l 307 799 l 132 799 m 382 882 l 64 988 l 64 883 l 382 882 "},"Í":{"ha":443,"x_min":64,"x_max":382,"o":"m 135 799 l 135 799 l 135 0 l 310 0 l 310 799 l 135 799 m 382 985 l 64 879 l 382 881 l 382 985 "},"Î":{"ha":553,"x_min":64,"x_max":492,"o":"m 183 799 l 183 799 l 183 0 l 358 0 l 358 799 l 183 799 m 492 853 l 492 853 l 314 988 l 314 988 l 314 988 l 250 988 l 64 853 l 171 853 l 281 931 l 385 853 l 492 853 "},"Ï":{"ha":440,"x_min":67,"x_max":383,"o":"m 133 799 l 133 799 l 133 0 l 308 0 l 308 799 l 133 799 m 170 895 l 170 994 l 67 994 l 67 896 l 170 895 m 282 895 l 282 994 l 382 994 l 382 896 l 282 895 m 170 895 l 170 994 l 67 994 l 67 896 l 170 895 m 282 895 l 282 994 l 382 994 l 382 896 l 282 895 "},"Ð":{"ha":1201,"x_min":56,"x_max":1090,"o":"m 310 368 l 310 639 l 582 639 l 582 799 l 135 799 l 135 368 l 56 368 l 56 256 l 135 256 l 135 1 l 579 1 l 579 161 l 310 161 l 310 256 l 585 256 l 585 368 l 310 368 m 1090 703 l 931 799 l 644 799 l 644 639 l 915 639 l 915 161 l 647 161 l 647 1 l 931 1 l 1090 97 l 1090 703 "},"Ñ":{"ha":1235,"x_min":139,"x_max":1096,"o":"m 139 799 l 139 0 l 314 0 l 314 579 l 583 319 l 583 529 l 297 799 l 139 799 m 921 225 l 646 478 l 646 275 l 932 0 l 1096 0 l 1096 799 l 921 799 l 921 225 m 885 1000 l 885 1000 l 758 926 l 694 926 l 568 1004 l 474 1004 l 363 938 l 363 860 l 489 939 l 553 939 l 679 860 l 774 860 l 885 924 l 885 1000 "},"Ò":{"ha":1179,"x_min":111,"x_max":1068,"o":"m 111 703 l 111 703 l 111 94 l 274 0 l 556 0 l 556 163 l 286 163 l 286 642 l 561 642 l 561 799 l 274 799 l 111 703 m 1068 703 l 1068 703 l 1068 94 l 911 0 l 624 0 l 624 163 l 893 163 l 893 642 l 624 642 l 624 799 l 911 799 l 1068 703 m 592 883 l 274 989 l 274 885 l 592 883 "},"Ó":{"ha":1179,"x_min":111,"x_max":1068,"o":"m 111 703 l 111 703 l 111 94 l 274 0 l 556 0 l 556 163 l 286 163 l 286 642 l 561 642 l 561 799 l 274 799 l 111 703 m 1068 703 l 1068 703 l 1068 94 l 911 0 l 624 0 l 624 163 l 893 163 l 893 642 l 624 642 l 624 799 l 911 799 l 1068 703 m 908 969 l 590 864 l 908 865 l 908 969 "},"Ô":{"ha":1179,"x_min":111,"x_max":1068,"o":"m 111 703 l 111 703 l 111 94 l 274 0 l 556 0 l 556 163 l 286 163 l 286 642 l 561 642 l 561 799 l 274 799 l 111 703 m 1068 703 l 1068 703 l 1068 94 l 911 0 l 624 0 l 624 163 l 893 163 l 893 642 l 624 642 l 624 799 l 911 799 l 1068 703 m 808 853 l 808 853 l 631 988 l 631 988 l 631 988 l 567 988 l 381 853 l 488 853 l 597 931 l 701 853 l 808 853 "},"Õ":{"ha":1179,"x_min":111,"x_max":1068,"o":"m 111 703 l 111 703 l 111 94 l 274 0 l 556 0 l 556 163 l 286 163 l 286 642 l 561 642 l 561 799 l 274 799 l 111 703 m 1068 703 l 1068 703 l 1068 94 l 911 0 l 624 0 l 624 163 l 893 163 l 893 642 l 624 642 l 624 799 l 911 799 l 1068 703 m 851 1000 l 851 1000 l 725 926 l 661 926 l 535 1004 l 440 1004 l 329 938 l 329 860 l 456 939 l 519 939 l 646 860 l 740 860 l 851 924 l 851 1000 "},"Ö":{"ha":1179,"x_min":111,"x_max":1068,"o":"m 507 903 l 507 988 l 344 988 l 344 904 l 507 903 m 682 903 l 682 988 l 839 988 l 839 904 l 682 903 m 507 903 l 507 988 l 344 988 l 344 904 l 507 903 m 682 903 l 682 988 l 839 988 l 839 904 l 682 903 m 111 703 l 111 703 l 111 94 l 274 0 l 556 0 l 556 163 l 286 163 l 286 642 l 561 642 l 561 799 l 274 799 l 111 703 m 1068 703 l 1068 703 l 1068 94 l 911 0 l 624 0 l 624 163 l 893 163 l 893 642 l 624 642 l 624 799 l 911 799 l 1068 703 "},"×":{"ha":719,"x_min":111,"x_max":608,"o":"m 608 490 l 535 551 l 360 378 l 186 551 l 111 476 l 286 303 l 111 129 l 186 54 l 360 228 l 535 54 l 608 129 l 435 303 l 608 490 "},"Ø":{"ha":1176,"x_min":111,"x_max":1065,"o":"m 111 704 l 111 100 l 174 60 l 111 4 l 206 6 l 231 28 l 269 4 l 557 4 l 557 161 l 376 161 l 557 328 l 557 417 l 286 165 l 286 639 l 557 639 l 557 799 l 269 799 l 111 704 m 1065 799 l 969 799 l 944 776 l 906 799 l 619 799 l 619 639 l 797 639 l 619 476 l 619 386 l 890 636 l 890 161 l 619 161 l 619 4 l 906 4 l 1065 100 l 1065 704 l 1003 742 l 1065 799 "},"Ù":{"ha":1208,"x_min":126,"x_max":1083,"o":"m 126 799 l 126 799 l 126 94 l 285 0 l 571 0 l 571 163 l 301 163 l 301 799 l 126 799 m 1083 799 l 1083 799 l 1083 94 l 926 0 l 639 0 l 639 163 l 908 163 l 908 799 l 1083 799 m 444 883 l 126 989 l 126 885 l 444 883 "},"Ú":{"ha":1207,"x_min":125,"x_max":1082,"o":"m 125 799 l 125 799 l 125 94 l 283 0 l 569 0 l 569 163 l 300 163 l 300 799 l 125 799 m 1082 799 l 1082 799 l 1082 94 l 925 0 l 638 0 l 638 163 l 907 163 l 907 799 l 1082 799 m 1076 969 l 758 864 l 1076 865 l 1076 969 "},"Û":{"ha":1207,"x_min":125,"x_max":1082,"o":"m 125 799 l 125 799 l 125 94 l 283 0 l 569 0 l 569 163 l 300 163 l 300 799 l 125 799 m 1082 799 l 1082 799 l 1082 94 l 925 0 l 638 0 l 638 163 l 907 163 l 907 799 l 1082 799 m 818 853 l 818 853 l 640 988 l 640 988 l 640 988 l 576 988 l 390 853 l 497 853 l 607 931 l 711 853 l 818 853 "},"Ü":{"ha":1207,"x_min":125,"x_max":1082,"o":"m 125 799 l 125 799 l 125 94 l 283 0 l 569 0 l 569 163 l 300 163 l 300 799 l 125 799 m 1082 799 l 1082 799 l 1082 94 l 925 0 l 638 0 l 638 163 l 907 163 l 907 799 l 1082 799 m 518 903 l 518 988 l 356 988 l 356 904 l 518 903 m 693 903 l 693 988 l 850 988 l 850 904 l 693 903 m 518 903 l 518 988 l 356 988 l 356 904 l 518 903 m 693 903 l 693 988 l 850 988 l 850 904 l 693 903 "},"Ý":{"ha":1040,"x_min":42,"x_max":999,"o":"m 599 365 l 999 747 l 842 799 l 519 494 l 519 494 l 200 799 l 42 747 l 442 365 l 442 0 l 599 0 l 599 365 m 844 985 l 526 879 l 844 881 l 844 985 "},"Þ":{"ha":1139,"x_min":139,"x_max":1097,"o":"m 1097 701 l 938 799 l 649 799 l 649 638 l 921 638 l 921 478 l 649 478 l 649 321 l 938 321 l 1097 415 l 1097 701 m 314 799 l 314 989 l 139 989 l 139 1 l 314 1 l 314 321 l 586 321 l 586 478 l 314 478 l 314 638 l 586 638 l 586 799 l 314 799 "},"ß":{"ha":1199,"x_min":139,"x_max":1101,"o":"m 139 801 l 139 801 l 139 0 l 315 0 l 315 642 l 588 642 l 588 801 l 139 801 m 1101 97 l 1101 97 l 940 0 l 656 0 l 656 161 l 925 161 l 925 321 l 653 321 l 653 482 l 925 482 l 925 642 l 653 642 l 653 801 l 940 801 l 1101 706 l 1101 465 l 972 401 l 1101 338 l 1101 97 "},"à":{"ha":1056,"x_min":111,"x_max":944,"o":"m 111 271 l 111 94 l 269 -1 l 497 -1 l 497 146 l 288 146 l 288 260 l 497 260 l 497 367 l 269 367 l 111 271 m 111 418 l 288 418 l 288 481 l 497 481 l 497 611 l 269 611 l 111 514 l 111 418 m 944 514 l 944 -1 l 564 -1 l 564 146 l 768 146 l 768 260 l 558 260 l 558 367 l 768 367 l 768 481 l 558 481 l 558 611 l 786 611 l 944 514 m 581 801 l 263 907 l 263 803 l 581 801 "},"á":{"ha":1056,"x_min":111,"x_max":944,"o":"m 111 271 l 111 94 l 269 -1 l 497 -1 l 497 146 l 288 146 l 288 260 l 497 260 l 497 367 l 269 367 l 111 271 m 111 418 l 288 418 l 288 481 l 497 481 l 497 611 l 269 611 l 111 514 l 111 418 m 944 514 l 944 -1 l 564 -1 l 564 146 l 768 146 l 768 260 l 558 260 l 558 367 l 768 367 l 768 481 l 558 481 l 558 611 l 786 611 l 944 514 m 783 900 l 465 794 l 783 796 l 783 900 "},"â":{"ha":1056,"x_min":111,"x_max":944,"o":"m 111 271 l 111 94 l 269 -1 l 497 -1 l 497 146 l 288 146 l 288 260 l 497 260 l 497 367 l 269 367 l 111 271 m 111 418 l 288 418 l 288 481 l 497 481 l 497 611 l 269 611 l 111 514 l 111 418 m 944 514 l 944 -1 l 564 -1 l 564 146 l 768 146 l 768 260 l 558 260 l 558 367 l 768 367 l 768 481 l 558 481 l 558 611 l 786 611 l 944 514 m 740 801 l 740 801 l 563 936 l 563 936 l 563 936 l 499 936 l 313 801 l 419 801 l 529 879 l 633 801 l 740 801 "},"ã":{"ha":1056,"x_min":111,"x_max":944,"o":"m 111 271 l 111 94 l 269 -1 l 497 -1 l 497 146 l 288 146 l 288 260 l 497 260 l 497 367 l 269 367 l 111 271 m 111 418 l 288 418 l 288 481 l 497 481 l 497 611 l 269 611 l 111 514 l 111 418 m 944 514 l 944 -1 l 564 -1 l 564 146 l 768 146 l 768 260 l 558 260 l 558 367 l 768 367 l 768 481 l 558 481 l 558 611 l 786 611 l 944 514 m 788 856 l 788 856 l 661 782 l 597 782 l 471 860 l 376 860 l 265 793 l 265 715 l 392 794 l 456 794 l 582 715 l 676 715 l 788 779 l 788 856 "},"ä":{"ha":1056,"x_min":111,"x_max":944,"o":"m 111 271 l 111 94 l 269 -1 l 497 -1 l 497 146 l 288 146 l 288 260 l 497 260 l 497 367 l 269 367 l 111 271 m 111 418 l 288 418 l 288 481 l 497 481 l 497 611 l 269 611 l 111 514 l 111 418 m 944 514 l 944 -1 l 564 -1 l 564 146 l 768 146 l 768 260 l 558 260 l 558 367 l 768 367 l 768 481 l 558 481 l 558 611 l 786 611 l 944 514 m 436 713 l 436 797 l 274 797 l 274 714 l 436 713 m 611 713 l 611 797 l 768 797 l 768 714 l 611 713 m 436 713 l 436 797 l 274 797 l 274 714 l 436 713 m 611 713 l 611 797 l 768 797 l 768 714 l 611 713 "},"å":{"ha":1056,"x_min":111,"x_max":944,"o":"m 111 271 l 111 94 l 269 -1 l 497 -1 l 497 146 l 288 146 l 288 260 l 497 260 l 497 367 l 269 367 l 111 271 m 111 418 l 288 418 l 288 481 l 497 481 l 497 611 l 269 611 l 111 514 l 111 418 m 944 514 l 944 -1 l 564 -1 l 564 146 l 768 146 l 768 260 l 558 260 l 558 367 l 768 367 l 768 481 l 558 481 l 558 611 l 786 611 l 944 514 m 569 714 l 569 636 l 728 703 l 728 928 l 569 990 l 569 911 l 665 878 l 665 749 l 569 714 m 344 703 l 503 636 l 503 714 l 407 749 l 407 878 l 503 911 l 503 985 l 344 928 l 344 703 "},"æ":{"ha":1171,"x_min":111,"x_max":1060,"o":"m 111 274 l 111 97 l 272 1 l 435 1 l 435 146 l 285 146 l 285 258 l 435 258 l 435 369 l 272 369 l 111 274 m 1060 354 l 1060 514 l 900 610 l 746 610 l 746 482 l 886 482 l 886 369 l 743 369 l 743 258 l 900 258 l 1060 354 m 883 194 l 1060 194 l 1060 97 l 900 1 l 500 1 l 500 482 l 290 482 l 290 418 l 115 418 l 115 514 l 275 610 l 515 610 l 588 567 l 660 610 l 675 610 l 675 146 l 883 146 l 883 194 "},"ç":{"ha":1056,"x_min":111,"x_max":944,"o":"m 111 517 l 111 96 l 269 0 l 492 0 l 492 147 l 288 147 l 288 482 l 497 482 l 497 613 l 269 613 l 111 517 m 944 419 l 769 419 l 769 482 l 560 482 l 560 613 l 786 613 l 944 517 l 944 419 m 944 193 l 769 193 l 769 147 l 560 147 l 560 0 l 786 0 l 944 96 l 944 193 m 614 -194 l 614 -269 l 757 -206 l 757 -62 l 614 -1 l 614 -75 l 694 -110 l 694 -158 l 614 -194 m 408 -206 l 551 -269 l 551 -194 l 471 -158 l 408 -206 "},"è":{"ha":1061,"x_min":111,"x_max":950,"o":"m 950 357 l 950 515 l 786 613 l 564 613 l 564 482 l 774 482 l 774 368 l 564 368 l 564 261 l 786 261 l 950 357 m 950 193 l 768 193 l 768 147 l 564 147 l 564 0 l 786 0 l 950 96 l 950 193 m 111 96 l 111 515 l 275 613 l 496 613 l 496 482 l 286 482 l 286 368 l 496 368 l 496 261 l 286 261 l 286 147 l 496 147 l 496 0 l 275 0 l 111 96 m 601 801 l 283 907 l 283 803 l 601 801 "},"é":{"ha":1061,"x_min":111,"x_max":950,"o":"m 950 357 l 950 515 l 786 613 l 564 613 l 564 482 l 774 482 l 774 368 l 564 368 l 564 261 l 786 261 l 950 357 m 950 193 l 768 193 l 768 147 l 564 147 l 564 0 l 786 0 l 950 96 l 950 193 m 111 96 l 111 515 l 275 613 l 496 613 l 496 482 l 286 482 l 286 368 l 496 368 l 496 261 l 286 261 l 286 147 l 496 147 l 496 0 l 275 0 l 111 96 m 789 900 l 471 794 l 789 796 l 789 900 "},"ê":{"ha":1061,"x_min":111,"x_max":950,"o":"m 950 357 l 950 515 l 786 613 l 564 613 l 564 482 l 774 482 l 774 368 l 564 368 l 564 261 l 786 261 l 950 357 m 950 193 l 768 193 l 768 147 l 564 147 l 564 0 l 786 0 l 950 96 l 950 193 m 111 96 l 111 515 l 275 613 l 496 613 l 496 482 l 286 482 l 286 368 l 496 368 l 496 261 l 286 261 l 286 147 l 496 147 l 496 0 l 275 0 l 111 96 m 742 801 l 742 801 l 564 936 l 564 936 l 564 936 l 500 936 l 314 801 l 421 801 l 531 879 l 635 801 l 742 801 "},"ë":{"ha":1061,"x_min":111,"x_max":950,"o":"m 950 357 l 950 515 l 786 613 l 564 613 l 564 482 l 774 482 l 774 368 l 564 368 l 564 261 l 786 261 l 950 357 m 950 193 l 768 193 l 768 147 l 564 147 l 564 0 l 786 0 l 950 96 l 950 193 m 111 96 l 111 515 l 275 613 l 496 613 l 496 482 l 286 482 l 286 368 l 496 368 l 496 261 l 286 261 l 286 147 l 496 147 l 496 0 l 275 0 l 111 96 m 442 715 l 442 800 l 279 800 l 279 717 l 442 715 m 617 715 l 617 800 l 774 800 l 774 717 l 617 715 m 442 715 l 442 800 l 279 800 l 279 717 l 442 715 m 617 715 l 617 800 l 774 800 l 774 717 l 617 715 "},"ì":{"ha":443,"x_min":64,"x_max":382,"o":"m 133 607 l 133 607 l 133 0 l 304 0 l 304 607 l 133 607 m 382 801 l 64 907 l 64 803 l 382 801 "},"í":{"ha":443,"x_min":64,"x_max":382,"o":"m 132 611 l 132 611 l 132 0 l 306 0 l 306 611 l 132 611 m 382 901 l 64 796 l 382 797 l 382 901 "},"î":{"ha":553,"x_min":64,"x_max":492,"o":"m 189 607 l 189 607 l 189 0 l 363 0 l 363 607 l 189 607 m 492 800 l 492 800 l 314 935 l 314 935 l 314 935 l 250 935 l 64 800 l 171 800 l 281 878 l 385 800 l 492 800 "},"ï":{"ha":440,"x_min":67,"x_max":383,"o":"m 134 607 l 134 607 l 134 0 l 307 0 l 307 607 l 134 607 m 170 715 l 170 801 l 67 801 l 67 717 l 170 715 m 282 715 l 282 801 l 382 801 l 382 717 l 282 715 m 170 715 l 170 801 l 67 801 l 67 717 l 170 715 m 282 715 l 282 801 l 382 801 l 382 717 l 282 715 "},"ð":{"ha":1035,"x_min":111,"x_max":924,"o":"m 271 607 l 111 513 l 111 97 l 271 1 l 493 1 l 493 146 l 283 146 l 283 479 l 493 479 l 493 607 l 271 607 m 924 513 l 699 735 l 747 783 l 703 828 l 651 779 l 601 829 l 557 785 l 607 735 l 556 682 l 600 636 l 653 689 l 736 607 l 557 607 l 557 479 l 750 479 l 750 146 l 557 146 l 557 1 l 764 1 l 924 97 l 924 513 "},"ñ":{"ha":1096,"x_min":139,"x_max":971,"o":"m 139 611 l 139 1 l 315 1 l 315 481 l 521 481 l 521 611 l 315 551 l 315 611 l 139 611 m 971 515 l 971 1 l 797 1 l 797 481 l 588 481 l 588 611 l 807 611 l 971 515 m 817 856 l 817 856 l 690 782 l 626 782 l 500 860 l 406 860 l 294 793 l 294 715 l 421 794 l 485 794 l 611 715 l 706 715 l 817 779 l 817 856 "},"ò":{"ha":1038,"x_min":111,"x_max":926,"o":"m 111 515 l 111 97 l 274 1 l 493 1 l 493 150 l 285 150 l 285 481 l 493 481 l 493 611 l 274 611 l 111 515 m 926 515 l 926 97 l 764 1 l 543 1 l 543 150 l 753 150 l 753 481 l 543 481 l 543 611 l 764 611 l 926 515 m 596 801 l 278 907 l 278 803 l 596 801 "},"ó":{"ha":1038,"x_min":111,"x_max":926,"o":"m 111 515 l 111 97 l 274 1 l 493 1 l 493 150 l 285 150 l 285 481 l 493 481 l 493 611 l 274 611 l 111 515 m 926 515 l 926 97 l 764 1 l 543 1 l 543 150 l 753 150 l 753 481 l 543 481 l 543 611 l 764 611 l 926 515 m 767 900 l 449 794 l 767 796 l 767 900 "},"ô":{"ha":1038,"x_min":111,"x_max":926,"o":"m 111 515 l 111 97 l 274 1 l 493 1 l 493 150 l 285 150 l 285 481 l 493 481 l 493 611 l 274 611 l 111 515 m 926 515 l 926 97 l 764 1 l 543 1 l 543 150 l 753 150 l 753 481 l 543 481 l 543 611 l 764 611 l 926 515 m 705 799 l 705 799 l 538 935 l 538 935 l 538 935 l 478 935 l 304 799 l 404 799 l 507 877 l 605 799 l 705 799 "},"õ":{"ha":1038,"x_min":111,"x_max":926,"o":"m 111 515 l 111 97 l 274 1 l 493 1 l 493 150 l 285 150 l 285 481 l 493 481 l 493 611 l 274 611 l 111 515 m 926 515 l 926 97 l 764 1 l 543 1 l 543 150 l 753 150 l 753 481 l 543 481 l 543 611 l 764 611 l 926 515 m 779 856 l 779 856 l 653 782 l 589 782 l 463 860 l 368 860 l 257 793 l 257 715 l 383 794 l 447 794 l 574 715 l 668 715 l 779 779 l 779 856 "},"ö":{"ha":1038,"x_min":111,"x_max":926,"o":"m 111 515 l 111 97 l 274 1 l 493 1 l 493 150 l 285 150 l 285 481 l 493 481 l 493 611 l 274 611 l 111 515 m 926 515 l 926 97 l 764 1 l 543 1 l 543 150 l 753 150 l 753 481 l 543 481 l 543 611 l 764 611 l 926 515 m 429 715 l 429 800 l 267 800 l 267 717 l 429 715 m 604 715 l 604 800 l 761 800 l 761 717 l 604 715 m 429 715 l 429 800 l 267 800 l 267 717 l 429 715 m 604 715 l 604 800 l 761 800 l 761 717 l 604 715 "},"÷":{"ha":683,"x_min":111,"x_max":572,"o":"m 572 367 l 111 367 l 111 286 l 572 286 l 572 367 m 344 92 l 389 113 l 389 171 l 344 192 l 294 171 l 294 113 l 344 92 m 344 438 l 389 460 l 389 518 l 344 539 l 294 518 l 294 460 l 344 438 "},"ø":{"ha":1040,"x_min":111,"x_max":929,"o":"m 494 3 l 494 147 l 378 147 l 494 247 l 494 325 l 282 147 l 282 482 l 494 482 l 494 611 l 271 611 l 111 515 l 111 99 l 178 60 l 111 1 l 207 3 l 235 25 l 271 3 l 494 3 m 860 554 l 929 611 l 831 610 l 804 588 q 788 597 794 593 q 776 604 782 601 q 767 611 771 608 l 557 611 l 557 482 l 679 482 l 557 381 l 557 299 l 753 467 l 753 147 l 557 147 l 557 3 l 767 3 l 929 99 l 929 515 q 907 528 918 522 q 884 540 896 533 q 860 554 872 547 "},"ù":{"ha":1096,"x_min":126,"x_max":957,"o":"m 957 0 l 957 607 l 783 607 l 783 146 l 575 146 l 575 0 l 783 63 l 783 0 l 957 0 m 129 96 l 129 607 l 304 607 l 304 146 l 511 146 l 511 0 l 286 0 l 129 96 m 444 801 l 126 907 l 126 803 l 444 801 "},"ú":{"ha":1092,"x_min":125,"x_max":953,"o":"m 953 0 l 953 607 l 779 607 l 779 146 l 571 146 l 571 0 l 779 63 l 779 0 l 953 0 m 125 96 l 125 607 l 300 607 l 300 146 l 507 146 l 507 0 l 282 0 l 125 96 m 953 900 l 635 794 l 953 796 l 953 900 "},"û":{"ha":1092,"x_min":125,"x_max":953,"o":"m 953 0 l 953 607 l 779 607 l 779 146 l 571 146 l 571 0 l 779 63 l 779 0 l 953 0 m 125 96 l 125 607 l 300 607 l 300 146 l 507 146 l 507 0 l 282 0 l 125 96 m 723 799 l 723 799 l 556 935 l 556 935 l 556 935 l 496 935 l 322 799 l 422 799 l 525 877 l 623 799 l 723 799 "},"ü":{"ha":1092,"x_min":125,"x_max":953,"o":"m 953 0 l 953 607 l 779 607 l 779 146 l 571 146 l 571 0 l 779 63 l 779 0 l 953 0 m 125 96 l 125 607 l 300 607 l 300 146 l 507 146 l 507 0 l 282 0 l 125 96 m 454 715 l 454 800 l 292 800 l 292 717 l 454 715 m 629 715 l 629 800 l 786 800 l 786 717 l 629 715 m 454 715 l 454 800 l 292 800 l 292 717 l 454 715 m 629 715 l 629 800 l 786 800 l 786 717 l 629 715 "},"ý":{"ha":1101,"x_min":125,"x_max":963,"o":"m 125 613 l 125 176 l 285 79 l 511 79 l 511 192 l 299 192 l 299 613 l 125 613 m 299 -64 l 125 -64 l 125 -176 l 285 -272 l 511 -272 l 511 -126 l 299 -126 l 299 -64 m 960 613 l 782 613 l 782 192 l 574 192 l 574 79 l 782 79 l 782 -126 l 578 -126 l 578 -272 l 782 -272 l 960 -176 l 960 613 m 963 900 l 644 794 l 963 796 l 963 900 "},"þ":{"ha":1079,"x_min":139,"x_max":968,"o":"m 968 511 l 808 606 l 585 606 l 585 478 l 797 478 l 797 192 l 588 192 l 588 81 l 808 81 l 968 175 l 968 511 m 313 606 l 313 799 l 139 799 l 139 -271 l 313 -271 l 313 81 l 517 81 l 517 192 l 313 192 l 313 478 l 521 478 l 521 606 l 313 606 "},"ÿ":{"ha":1099,"x_min":125,"x_max":960,"o":"m 125 613 l 125 176 l 285 79 l 511 79 l 511 192 l 299 192 l 299 613 l 125 613 m 299 -64 l 125 -64 l 125 -176 l 285 -272 l 511 -272 l 511 -126 l 299 -126 l 299 -64 m 960 613 l 782 613 l 782 192 l 574 192 l 574 79 l 782 79 l 782 -126 l 578 -126 l 578 -272 l 782 -272 l 960 -176 l 960 613 "},"ı":{"ha":576,"x_min":69,"x_max":438,"o":"m 438 610 l 438 610 l 294 610 l 69 513 l 69 368 l 276 449 l 276 -1 l 438 -1 l 438 610 "},"Œ":{"ha":1408,"x_min":111,"x_max":1339,"o":"m 111 701 l 111 97 l 269 1 l 425 1 l 425 161 l 286 161 l 286 638 l 428 638 l 428 797 l 269 797 l 111 701 m 493 797 l 493 638 l 639 638 l 639 161 l 496 161 l 496 1 l 957 1 l 957 161 l 813 161 l 813 319 l 960 319 l 960 479 l 813 479 l 813 638 l 960 638 l 960 797 l 493 797 m 1026 1 l 1339 1 l 1339 161 l 1026 161 l 1026 1 m 1339 797 l 1024 797 l 1024 638 l 1339 638 l 1339 797 m 1117 479 l 1024 479 l 1024 319 l 1117 319 l 1117 479 "},"œ":{"ha":1213,"x_min":111,"x_max":1101,"o":"m 942 254 l 1101 351 l 1101 511 l 942 607 l 836 607 l 836 478 l 929 478 l 929 367 l 833 367 l 833 254 l 942 254 m 1101 190 l 926 190 l 926 143 l 833 143 l 833 0 l 942 0 l 1101 94 l 1101 190 m 271 607 l 111 511 l 111 94 l 271 0 l 363 0 l 363 143 l 283 143 l 283 478 l 363 478 l 363 607 l 271 607 m 686 478 l 767 478 l 767 607 l 669 607 l 594 561 q 567 578 579 569 q 543 593 554 586 q 521 607 531 600 l 426 607 l 426 478 l 508 478 l 508 143 l 426 143 l 426 0 l 521 0 l 596 43 l 669 0 l 768 0 l 768 143 l 686 143 l 686 254 l 768 254 l 768 367 l 686 367 l 686 478 "},"ˆ":{"ha":650,"x_min":111,"x_max":539,"o":"m 539 853 l 539 853 l 361 988 l 361 988 l 361 988 l 297 988 l 111 853 l 218 853 l 328 931 l 432 853 l 539 853 "},"˚":{"ha":606,"x_min":111,"x_max":494,"o":"m 336 714 l 336 636 l 494 703 l 494 928 l 336 990 l 336 911 l 432 878 l 432 749 l 336 714 m 111 703 l 269 636 l 269 714 l 174 749 l 174 878 l 269 911 l 269 985 l 111 928 l 111 703 "},"˜":{"ha":744,"x_min":111,"x_max":633,"o":"m 633 856 l 633 856 l 507 782 l 443 782 l 317 860 l 222 860 l 111 793 l 111 715 l 238 794 l 301 794 l 428 715 l 522 715 l 633 779 l 633 856 "},"–":{"ha":1054,"x_min":111,"x_max":943,"o":"m 943 425 l 111 425 l 111 343 l 943 343 l 943 425 "},"—":{"ha":1240,"x_min":111,"x_max":1129,"o":"m 1129 425 l 111 425 l 111 343 l 1129 343 l 1129 425 "},"‘":{"ha":347,"x_min":93,"x_max":210,"o":"m 210 729 l 210 989 l 93 921 l 93 729 l 210 729 "},"’":{"ha":200,"x_min":42,"x_max":158,"o":"m 42 988 l 42 729 l 158 797 l 158 988 l 42 988 "},"“":{"ha":507,"x_min":111,"x_max":396,"o":"m 228 732 l 228 992 l 111 924 l 111 732 l 228 732 m 396 732 l 396 992 l 279 924 l 279 732 l 396 732 "},"”":{"ha":507,"x_min":111,"x_max":396,"o":"m 279 989 l 279 729 l 396 797 l 396 989 l 279 989 m 111 989 l 111 729 l 228 797 l 228 989 l 111 989 "},"„":{"ha":507,"x_min":111,"x_max":396,"o":"m 279 193 l 279 -67 l 396 1 l 396 193 l 279 193 m 111 193 l 111 -67 l 228 1 l 228 193 l 111 193 "},"•":{"ha":493,"x_min":111,"x_max":382,"o":"m 247 242 l 247 242 l 382 289 l 382 449 l 247 496 l 111 449 l 111 289 l 247 242 "},"…":{"ha":763,"x_min":69,"x_max":693,"o":"m 308 168 l 308 0 l 451 1 l 451 168 l 308 168 m 69 168 l 69 0 l 213 1 l 213 168 l 69 168 m 550 168 l 550 0 l 693 1 l 693 168 l 550 168 "},"‹":{"ha":389,"x_min":69,"x_max":319,"o":"m 69 353 l 69 289 l 319 83 l 319 164 l 131 321 l 319 464 l 319 543 l 69 353 "},"›":{"ha":389,"x_min":69,"x_max":319,"o":"m 319 289 l 319 353 l 69 543 l 69 464 l 258 321 l 69 164 l 69 83 l 319 289 "},"⁄":{"ha":681,"x_min":42,"x_max":639,"o":"m 639 900 l 535 899 l 42 1 l 138 1 l 639 900 "},"€":{"ha":1114,"x_min":42,"x_max":1003,"o":"m 939 161 l 939 161 l 557 161 l 557 1 l 1003 1 l 939 161 m 939 642 l 1003 801 l 554 801 l 554 642 l 939 642 m 490 642 l 490 801 l 378 801 l 218 706 l 218 482 l 106 482 l 42 322 l 218 322 l 218 97 l 378 1 l 488 1 l 488 161 l 394 161 l 394 322 l 490 322 l 490 482 l 394 482 l 394 642 l 490 642 m 554 482 l 554 482 l 554 322 l 907 322 l 907 482 l 554 482 "},"™":{"ha":974,"x_min":111,"x_max":863,"o":"m 172 319 l 172 669 l 454 793 l 454 865 l 111 711 l 111 279 l 454 122 l 454 199 l 172 319 m 246 632 l 246 581 l 317 581 l 317 363 l 382 363 l 382 581 l 461 581 l 461 632 l 246 632 m 713 632 l 661 632 l 601 568 l 543 632 l 493 632 l 493 363 l 551 363 l 551 554 l 601 499 l 657 554 l 657 363 l 713 363 l 713 632 m 804 669 l 804 319 l 519 199 l 519 122 l 863 279 l 863 711 l 519 865 l 519 793 l 804 669 "},"−":{"ha":550,"x_min":42,"x_max":508,"o":"m 508 425 l 42 425 l 42 343 l 508 343 l 508 425 "}}}
